<?xml version="1.0" standalone="no"?>
<!DOCTYPE svg PUBLIC "-//W3C//DTD SVG 20010904//EN"
 "http://www.w3.org/TR/2001/REC-SVG-20010904/DTD/svg10.dtd">
<svg version="1.0" xmlns="http://www.w3.org/2000/svg"
 width="507.000000pt" height="507.000000pt" viewBox="0 0 507.000000 507.000000"
 preserveAspectRatio="xMidYMid meet">
<metadata>
Created by potrace 1.11, written by Peter Selinger 2001-2013
</metadata>
<g transform="translate(0.000000,507.000000) scale(0.100000,-0.100000)"
fill="#000000" stroke="none">
<path d="M1465 4990 c3 -5 8 -10 11 -10 2 0 4 5 4 10 0 6 -5 10 -11 10 -5 0
-7 -4 -4 -10z"/>
<path d="M1440 4965 c0 -8 -7 -15 -15 -15 -8 0 -15 -7 -15 -15 0 -8 7 -15 16
-15 9 0 12 -5 8 -12 -4 -7 -3 -8 4 -4 7 4 12 1 12 -8 0 -9 5 -16 10 -16 6 0 4
13 -5 30 -12 23 -13 35 -5 50 7 14 7 20 0 20 -5 0 -10 -7 -10 -15z"/>
<path d="M2338 4875 c-2 -1 -45 -5 -97 -9 -52 -4 -97 -9 -101 -11 -3 -2 -29
-7 -56 -11 -64 -8 -71 -10 -124 -25 -50 -14 -54 -15 -90 -22 -39 -8 -152 -47
-182 -63 -15 -8 -29 -14 -30 -13 -5 3 -54 -14 -106 -37 -29 -13 -59 -24 -66
-24 -8 0 -16 -3 -18 -7 -1 -5 -41 -27 -88 -51 -132 -67 -122 -49 -120 -209 1
-76 2 -147 1 -158 0 -11 -13 -31 -28 -44 -15 -13 -43 -37 -62 -54 l-34 -30
-53 17 c-71 22 -182 22 -242 0 -55 -21 -152 -81 -159 -101 -3 -7 -10 -13 -17
-13 -6 0 -19 -12 -28 -28 -39 -61 -86 -121 -92 -115 -3 4 -6 -3 -6 -15 0 -12
-3 -22 -7 -22 -11 0 -90 -126 -126 -200 -6 -14 -14 -27 -18 -30 -7 -5 -48 -97
-48 -106 0 -3 -6 -15 -14 -27 -7 -12 -25 -53 -38 -92 -13 -38 -27 -72 -30 -75
-4 -4 -31 -89 -43 -135 -1 -5 -5 -19 -9 -30 -3 -11 -8 -31 -11 -45 -2 -14 -11
-54 -21 -89 -9 -35 -14 -69 -11 -76 2 -7 2 -16 -2 -19 -3 -4 -7 -12 -8 -19 -1
-7 -5 -28 -8 -47 -25 -141 -26 -496 -1 -680 20 -150 99 -443 141 -522 8 -14
14 -32 14 -38 0 -18 140 -294 151 -298 5 -2 9 -9 9 -16 0 -12 124 -200 156
-236 121 -139 222 -192 361 -186 43 2 94 10 114 19 38 17 42 16 99 -30 65 -53
82 -73 73 -86 -5 -7 -8 -30 -7 -52 2 -35 4 -86 4 -147 0 -105 -4 -100 150
-178 136 -69 382 -164 482 -184 42 -9 63 -14 103 -25 35 -9 102 -21 210 -37
17 -2 82 -7 145 -10 63 -2 120 -7 127 -9 7 -2 15 0 18 5 4 7 13 7 24 0 10 -5
20 -7 23 -5 2 3 58 7 124 10 65 3 126 7 134 10 8 2 35 7 60 10 81 10 256 48
290 63 8 3 20 6 25 7 15 1 164 54 205 73 19 9 41 15 48 14 6 -2 12 2 12 8 0 5
9 10 20 10 11 0 20 5 20 12 0 6 3 9 6 5 8 -8 257 122 274 143 3 4 12 10 20 14
46 22 164 109 198 146 69 75 78 221 20 337 -9 18 -6 26 18 51 16 16 47 51 69
77 22 27 55 64 72 84 18 20 33 39 33 43 0 11 24 1 140 -57 97 -48 130 -57 130
-35 0 5 17 35 38 67 82 124 192 344 237 473 1 3 5 13 8 23 7 17 12 32 17 52 2
6 11 35 22 65 10 30 18 55 17 55 -1 0 8 41 19 90 11 50 23 108 27 130 3 23 7
52 10 65 23 117 23 557 0 670 -10 47 -16 85 -20 110 -2 14 -11 54 -20 90 -10
36 -19 79 -22 95 -3 17 -9 34 -14 40 -5 5 -9 19 -9 31 0 12 -7 35 -15 50 -8
16 -15 36 -15 44 0 8 -9 33 -20 55 -11 22 -19 43 -20 46 0 4 -10 28 -22 55
-12 27 -21 52 -20 57 1 4 -2 7 -7 7 -5 0 -12 14 -16 30 -4 17 -11 30 -16 30
-6 0 -8 4 -4 9 3 5 1 12 -4 15 -5 3 -21 29 -36 58 -15 29 -53 91 -84 137 -31
46 -60 91 -66 100 -5 9 -12 18 -15 21 -3 3 -31 38 -63 78 -32 39 -62 72 -67
72 -6 0 -10 6 -10 13 0 13 -215 227 -228 227 -13 0 -27 -14 -67 -65 -21 -27
-44 -54 -50 -60 -6 -5 -21 -25 -33 -42 l-23 -33 -67 51 c-37 28 -75 57 -85 65
-9 8 -21 14 -26 14 -5 0 -14 6 -20 14 -7 8 -26 22 -44 31 -18 9 -57 31 -87 50
-30 18 -98 54 -150 80 l-95 46 -1 77 c-1 63 -6 88 -29 137 -26 55 -75 121 -75
102 0 -5 -12 -2 -27 7 -16 8 -55 20 -88 27 -33 7 -64 14 -70 15 -5 2 -26 6
-45 9 -19 3 -60 11 -90 16 -30 6 -82 13 -115 15 -69 5 -413 12 -417 9z"/>
<path d="M1310 4850 c0 -5 5 -10 10 -10 6 0 10 5 10 10 0 6 -4 10 -10 10 -5 0
-10 -4 -10 -10z"/>
<path d="M1297 4819 c-9 -6 -15 -15 -12 -20 4 -5 11 -7 16 -3 5 3 8 1 7 -4 -2
-6 2 -10 7 -10 6 0 8 5 6 12 -2 6 -4 17 -4 24 0 6 -1 12 -1 12 -1 0 -9 -5 -19
-11z"/>
<path d="M1343 4750 c15 -26 47 -40 47 -20 0 6 -6 10 -14 8 -8 -2 -22 6 -32
17 -15 19 -16 19 -1 -5z"/>
<path d="M1395 4690 c21 -24 26 -25 19 -6 -3 8 -13 17 -22 21 -13 5 -13 2 3
-15z"/>
<path d="M1175 4588 l-40 -43 43 40 c39 36 47 45 39 45 -2 0 -21 -19 -42 -42z"/>
<path d="M1104 4518 l-19 -23 23 19 c21 18 27 26 19 26 -2 0 -12 -10 -23 -22z"/>
</g>
</svg>
