<svg width="221" height="122" viewBox="0 0 221 122" fill="none" xmlns="http://www.w3.org/2000/svg">
<path d="M57.4248 0.505859C63.2256 0.720703 69.0801 1.79492 74.9883 3.72852C81.0039 5.55469 86.5361 8.5625 91.585 12.752C96.6338 16.834 100.931 22.1514 104.476 28.7041C108.021 35.1494 110.223 43.0449 111.082 52.3906C111.834 60.0176 110.867 67.5908 108.182 75.1104C105.604 82.5225 102.005 89.3438 97.3857 95.5742C92.7666 101.805 87.4492 107.122 81.4336 111.526C75.418 115.823 69.4023 118.67 63.3867 120.066C59.7344 120.926 55.7061 121.033 51.3018 120.389C47.0049 119.637 42.6006 118.294 38.0889 116.36C33.6846 114.319 29.334 111.741 25.0371 108.626C20.8477 105.511 17.0342 101.966 13.5967 97.9912C10.1592 93.9092 7.25879 89.5049 4.89551 84.7783C2.63965 80.0518 1.24316 75.1104 0.706055 69.9541C0.168945 65.6572 0.115234 60.9307 0.544922 55.7744C1.08203 50.5107 2.10254 45.3008 3.60645 40.1445C5.21777 34.8809 7.41992 29.832 10.2129 24.998C13.1133 20.0566 16.7656 15.7598 21.1699 12.1074C25.5742 8.34766 30.7305 5.44727 36.6387 3.40625C42.6543 1.25781 49.583 0.291016 57.4248 0.505859ZM28.582 65.7646C27.0781 77.2588 28.1523 86.4971 31.8047 93.4795C35.5645 100.462 41.2041 104.705 48.7236 106.209C52.376 106.961 55.8672 106.209 59.1973 103.953C62.6348 101.59 65.75 98.2061 68.543 93.8018C71.3359 89.3975 73.7529 84.2412 75.7939 78.333C77.835 72.4248 79.3389 66.248 80.3057 59.8027C81.2725 53.3574 81.3262 47.5566 80.4668 42.4004C79.7148 37.1367 78.3721 32.6787 76.4385 29.0264C74.5049 25.2666 72.1416 22.3662 69.3486 20.3252C66.6631 18.2842 63.8701 17.1563 60.9697 16.9414C55.9209 16.6191 51.5166 17.9619 47.7568 20.9697C43.9971 23.8701 40.8281 27.6836 38.25 32.4102C35.6719 37.1367 33.5771 42.4541 31.9658 48.3623C30.4619 54.2705 29.334 60.0713 28.582 65.7646ZM108.826 4.37305C112.264 4.91016 115.379 5.39355 118.172 5.82324C120.965 6.14551 123.382 6.41406 125.423 6.62891C127.786 6.95117 129.881 7.21973 131.707 7.43457C133.963 7.75684 137.347 7.38086 141.858 6.30664C146.37 5.125 151.312 4.05078 156.683 3.08398C162.161 2.00977 167.747 1.41895 173.44 1.31152C179.134 1.09668 184.344 2.11719 189.07 4.37305C193.797 6.62891 197.664 8.88477 200.672 11.1406C203.68 13.3965 206.043 15.8135 207.762 18.3916C209.588 20.8623 210.877 23.4941 211.629 26.2871C212.381 29.0801 212.811 32.1416 212.918 35.4717C212.811 40.4131 211.629 45.1934 209.373 49.8125C208.406 51.7461 207.117 53.7871 205.506 55.9355C204.002 57.9766 202.122 59.9639 199.866 61.8975C197.61 63.8311 194.925 65.6572 191.81 67.376C188.802 69.0947 185.257 70.5986 181.175 71.8877C185.149 73.0693 188.426 74.4658 191.004 76.0771C193.689 77.6885 195.838 79.1924 197.449 80.5889C199.383 82.3076 200.833 83.9727 201.8 85.584C202.981 87.8398 203.787 89.7734 204.217 91.3848C204.646 92.9961 204.915 94.5537 205.022 96.0576C205.237 97.4541 205.506 98.9043 205.828 100.408C206.15 101.912 206.849 103.631 207.923 105.564C208.782 107.068 209.803 108.626 210.984 110.237C212.059 111.634 213.294 113.138 214.69 114.749C216.194 116.36 218.021 117.918 220.169 119.422C217.161 119.529 214.368 119.583 211.79 119.583C209.319 119.583 207.171 119.583 205.345 119.583C203.196 119.583 201.155 119.529 199.222 119.422C197.288 119.314 194.871 119.261 191.971 119.261C189.5 119.261 186.331 119.261 182.464 119.261C178.704 119.261 174.139 119.314 168.768 119.422C171.131 117.596 173.064 115.77 174.568 113.943C176.072 112.117 177.254 110.452 178.113 108.948C179.08 107.229 179.778 105.564 180.208 103.953C180.745 101.053 180.799 98.0449 180.369 94.9297C180.047 92.2441 179.188 89.29 177.791 86.0674C176.395 82.7373 174.139 79.4072 171.023 76.0771C167.908 76.6143 165.276 77.0439 163.128 77.3662C161.087 77.5811 159.314 77.7959 157.811 78.0107C156.092 78.2256 154.695 78.3867 153.621 78.4941C152.654 78.6016 151.58 78.709 150.398 78.8164C149.432 78.9238 148.357 79.085 147.176 79.2998C146.102 79.4072 145.081 79.5684 144.114 79.7832C143.899 84.4023 143.899 88.4307 144.114 91.8682C144.329 95.1982 144.598 97.9912 144.92 100.247C145.35 102.933 145.833 105.242 146.37 107.176C146.907 109.109 147.659 110.989 148.626 112.815C149.378 114.319 150.345 115.931 151.526 117.649C152.708 119.261 154.051 120.604 155.555 121.678C152.762 121.678 150.076 121.678 147.498 121.678C145.027 121.678 142.771 121.624 140.73 121.517C138.367 121.517 136.111 121.463 133.963 121.355C131.814 121.248 129.397 121.194 126.712 121.194C124.456 121.194 121.771 121.194 118.655 121.194C115.647 121.194 112.371 121.248 108.826 121.355C111.619 118.455 113.821 115.984 115.433 113.943C117.044 111.902 118.279 110.184 119.139 108.787C120.105 107.283 120.696 105.994 120.911 104.92C121.126 103.201 121.287 100.14 121.395 95.7354C121.609 91.2236 121.771 86.0674 121.878 80.2666C121.985 74.4658 122.039 68.3965 122.039 62.0586C122.039 55.7207 121.985 49.8125 121.878 44.334C121.771 38.748 121.663 33.9678 121.556 29.9932C121.448 26.0186 121.341 23.4941 121.233 22.4199C120.911 20.4863 120.213 18.5527 119.139 16.6191C118.279 14.9004 117.044 12.9668 115.433 10.8184C113.821 8.66992 111.619 6.52148 108.826 4.37305ZM169.734 61.0918C170.809 60.4473 171.722 59.8027 172.474 59.1582C173.226 58.5137 173.87 57.4932 174.407 56.0967C174.944 54.5928 175.374 52.498 175.696 49.8125C176.126 47.127 176.609 43.4746 177.146 38.8555C177.576 34.2363 177.254 30.4229 176.18 27.415C175.213 24.4072 173.87 22.0439 172.151 20.3252C170.54 18.499 168.714 17.2637 166.673 16.6191C164.739 15.8672 163.021 15.4912 161.517 15.4912C158.509 15.4912 155.555 16.4043 152.654 18.2305C149.754 20.0566 147.552 22.5273 146.048 25.6426C145.511 27.0391 145.027 29.3486 144.598 32.5713C144.275 35.3643 144.061 39.2314 143.953 44.1729C143.846 49.1143 144.007 55.6133 144.437 63.6699C148.519 64.3145 152.117 64.583 155.232 64.4756C158.348 64.2607 160.979 63.8848 163.128 63.3477C165.706 62.8105 167.908 62.0586 169.734 61.0918Z" fill="url(#paint0_linear)"/>
<defs>
<linearGradient id="paint0_linear" x1="107" y1="-35" x2="107" y2="164" gradientUnits="userSpaceOnUse">
<stop stop-color="#3C77B9"/>
<stop offset="1" stop-color="#40B7E8"/>
</linearGradient>
</defs>
</svg>
